<svg width="466" height="267" viewBox="0 0 466 267" fill="none" xmlns="http://www.w3.org/2000/svg">
<path d="M424.664 48.6848C424.664 48.6848 350.291 -9.64698 277.42 1.38953C204.549 12.4247 144.449 66.8148 70.8265 64.4503C-2.79617 62.0858 -12.5616 138.548 14.4837 175.595C41.529 212.644 265.4 179.537 378.086 180.324C490.773 181.113 480.255 90.4625 424.664 48.6848Z" fill="#EAF9CC"/>
<path d="M248.12 266.245C130.495 266.245 35.1413 259.231 35.1413 250.579C35.1413 241.926 130.495 234.912 248.12 234.912C365.744 234.912 461.098 241.926 461.098 250.579C461.098 259.231 365.744 266.245 248.12 266.245Z" fill="#E6E6E6"/>
<path d="M166.206 40.4075H287.257V171.52H166.206V40.4075Z" fill="#C16A2F"/>
<path d="M46.1316 40.4075H167.183V171.52H46.1316V40.4075Z" fill="#D97938"/>
<path d="M395.062 240.252C390.355 233.856 387.382 225.399 387.148 216.052C386.887 205.675 390.048 196.205 395.346 189.324L395.409 178.135L415.226 177.622L415.238 178.184C415.403 178.176 415.567 178.159 415.732 178.154C432.033 177.703 445.664 193.94 446.179 214.42C446.693 234.9 433.895 251.868 417.594 252.319C417.025 252.334 416.461 252.325 415.9 252.3L394.994 252.351L395.062 240.252Z" fill="#152D40"/>
<path d="M365.516 216.078C365.002 195.597 377.801 178.629 394.103 178.179C410.405 177.729 424.037 193.968 424.55 214.449C425.064 234.93 412.265 251.898 395.963 252.348C379.661 252.798 366.029 236.56 365.516 216.078Z" fill="#0E202D"/>
<path d="M172.355 237.45C167.857 231.335 165.015 223.252 164.79 214.317C164.54 204.399 167.563 195.346 172.627 188.768L172.687 178.073L191.63 177.581L191.64 178.118C191.798 178.11 191.954 178.095 192.113 178.09C207.695 177.659 220.725 193.18 221.216 212.756C221.708 232.332 209.474 248.55 193.892 248.982C193.348 248.997 192.809 248.988 192.272 248.965L172.289 249.013L172.355 237.45Z" fill="#152D40"/>
<path d="M144.121 214.33C143.63 194.752 155.864 178.533 171.447 178.103C187.029 177.673 200.059 193.195 200.55 212.772C201.041 232.349 188.807 248.568 173.224 248.999C157.642 249.429 144.612 233.907 144.121 214.33Z" fill="#0E202D"/>
<path d="M121.615 189.405H310.22V220.75H121.615V189.405Z" fill="#2D2214"/>
<path d="M76.7793 242.262C71.4835 235.065 68.1381 225.549 67.8748 215.032C67.5816 203.355 71.1382 192.699 77.1011 184.957L77.1719 172.366L99.4717 171.789L99.4841 172.421C99.6705 172.412 99.8543 172.394 100.041 172.388C118.383 171.881 133.722 190.152 134.3 213.198C134.879 236.243 120.477 255.335 102.135 255.842C101.495 255.86 100.861 255.849 100.228 255.821L76.7048 255.879L76.7793 242.262Z" fill="#0E202D"/>
<path d="M43.5451 215.051C42.9673 192.004 57.3689 172.911 75.712 172.405C94.0551 171.899 109.394 190.171 109.971 213.217C110.549 236.263 96.1476 255.356 77.8045 255.862C59.4614 256.369 44.123 238.097 43.5451 215.051Z" fill="#152D40"/>
<path d="M55.9851 214.028C56.3007 226.61 64.676 236.587 74.6911 236.309C84.7062 236.033 92.5697 225.608 92.253 213.026C91.9374 200.443 83.5621 190.466 73.547 190.744C63.5319 191.02 55.6696 201.445 55.9851 214.028Z" fill="#29496B"/>
<path d="M72.9906 179.716C62.3742 180.01 53.0858 186.536 47.2509 196.444C43.7129 194.035 41.37 189.861 41.37 185.102C41.37 177.628 47.1329 171.581 54.256 171.581H175.478C182.824 171.581 188.681 165.141 188.341 157.445L184.897 78.1628C184.558 70.4684 190.414 64.0266 197.76 64.0266H337.621C342.072 64.0266 346.207 66.4354 348.563 70.4058L378.658 121.134C379.864 123.174 381.575 124.847 383.613 125.965L434.935 154.2C438.637 156.24 441.167 160.026 441.729 164.377L444.154 183.306C445.185 191.406 439.175 198.622 431.373 198.622H319.862C314.461 184.524 301.949 174.652 287.378 174.652C272.805 174.652 260.294 184.522 254.893 198.622H101.683C95.5215 186.969 84.8914 179.388 72.9906 179.716Z" fill="#90C42F"/>
<path d="M327.499 212.144H412.137V228.431H327.499V212.144Z" fill="#152D40"/>
<path d="M285.104 244.208C279.809 237.011 276.463 227.495 276.199 216.978C275.905 205.301 279.462 194.645 285.424 186.903L285.494 174.312L307.794 173.735L307.807 174.367C307.993 174.358 308.177 174.34 308.363 174.334C326.705 173.827 342.045 192.098 342.622 215.144C343.201 238.189 328.8 257.281 310.458 257.788C309.818 257.806 309.183 257.795 308.551 257.767L285.027 257.825L285.104 244.208Z" fill="#0E202D"/>
<path d="M254.892 198.623C260.293 184.525 272.805 174.654 287.378 174.654C301.951 174.654 314.461 184.524 319.861 198.623L347.707 200.774C347.707 200.774 341.015 189.309 339.8 186.331C335.92 176.824 329.55 166.049 308.756 160.826C287.963 155.602 263.397 158.982 254.892 198.623Z" fill="#83AC37"/>
<path d="M248.133 72.842L271.175 121.591L325.859 121.136L330.194 121.099L335.184 121.063L346.055 120.964L352.44 120.915L355.79 120.891L368.407 120.78L341.85 72.842H248.133Z" fill="#FCF1D1"/>
<path d="M259.945 122.005L237.691 72.8965H198.735C194.688 72.8965 191.478 76.4771 191.727 80.7173L194.079 120.79L259.945 122.005Z" fill="#FCF1D1"/>
<path d="M261.604 119.341L258.48 112.17H250.865C250.865 112.17 249.304 105.409 242.86 104.18C236.416 102.951 231.927 103.566 230.559 109.506C229.193 115.447 236.416 120.569 245.788 119.135C255.162 117.702 261.604 119.341 261.604 119.341Z" fill="#83AC37"/>
<path d="M328.085 219.519H441.131C447.762 219.519 453.139 213.879 453.139 206.92C453.139 199.962 447.764 194.321 441.131 194.321H328.085C321.454 194.321 316.078 199.962 316.078 206.92C316.078 213.879 321.453 219.519 328.085 219.519Z" fill="#372B19"/>
<path d="M322.208 219.519H345.676C349.062 219.519 351.806 216.639 351.806 213.087V200.754C351.806 197.201 349.061 194.322 345.676 194.322H322.208C318.822 194.322 316.078 197.202 316.078 200.754V213.087C316.078 216.64 318.822 219.519 322.208 219.519Z" fill="#2D2214"/>
<path d="M440.141 181.128L438.613 167.302C438.212 163.669 435.279 160.928 431.793 160.928H361.953C357.883 160.928 354.707 164.622 355.123 168.87L356.446 182.353C356.805 186.015 359.737 188.803 363.244 188.82L433.289 189.161C437.407 189.182 440.616 185.421 440.141 181.128Z" fill="#152D40"/>
<path d="M251.865 217.007C251.287 193.961 265.688 174.868 284.031 174.362C302.374 173.856 317.713 192.128 318.291 215.174C318.868 238.22 304.467 257.313 286.124 257.819C267.781 258.326 252.442 240.053 251.865 217.007Z" fill="#152D40"/>
<path d="M264.294 215.936C263.979 203.353 271.842 192.928 281.858 192.651C291.874 192.375 300.249 202.351 300.565 214.935C300.88 227.518 293.017 237.943 283.001 238.22C272.985 238.496 264.61 228.52 264.294 215.936Z" fill="#29496B"/>
<path d="M348.585 167.894C347.707 168.201 298.213 135.628 266.584 132.862L271.563 125.794C271.563 125.794 308.464 134.091 348.878 165.128L348.585 167.894Z" fill="#83AC37"/>
<path d="M425.678 156.657L357.079 157.036L350.928 152.375L419.947 152.733L377.385 128.15L381.289 127.125L426.376 153.84C427.655 154.6 427.148 156.649 425.678 156.657Z" fill="#83AC37"/>
<path d="M260.238 124.053L260.628 176.089C260.628 176.089 251.648 134.092 260.238 124.053Z" fill="#83AC37"/>
<path d="M426.048 184.796C420.953 184.796 416.823 180.256 416.823 174.655C416.823 169.054 420.953 164.514 426.048 164.514C431.143 164.514 435.273 169.054 435.273 174.655C435.273 180.256 431.143 184.796 426.048 184.796Z" fill="#FCF1D1"/>
<path d="M370.989 184.796C365.894 184.796 361.764 180.256 361.764 174.655C361.764 169.054 365.894 164.514 370.989 164.514C376.084 164.514 380.214 169.054 380.214 174.655C380.214 180.256 376.084 184.796 370.989 184.796Z" fill="#FCF1D1"/>
<path d="M295.549 99.6221L295.344 106.5C295.344 106.5 301.08 111.445 304.835 111.23C308.591 111.014 308.044 109.94 308.044 109.94L308.112 105.14C308.112 105.14 299.101 99.6938 295.549 99.6221Z" fill="#C17638"/>
<path d="M315.264 97.2064C314.854 104.515 311.015 106.285 307.738 107.36C304.474 108.431 298.459 105.34 296.287 101.488C296.283 101.475 296.275 101.462 296.267 101.449C296.16 101.256 296.059 101.062 295.968 100.865H295.964C294.158 97.1256 294.526 92.8867 294.526 92.8867C294.526 92.8867 294.422 90.4531 294.542 87.5868C294.661 84.7191 295.005 81.4265 295.89 79.7073C297.667 76.2687 303.026 75.4436 305.382 75.4436C307.737 75.4436 312.244 77.2711 314.087 79.8494C315.932 82.4276 315.387 95.057 315.264 97.2064Z" fill="#E1964F"/>
<path d="M294.577 86.8335C294.577 86.8335 292.733 86.9417 291.76 88.9295C290.788 90.9173 291.505 95.4312 294.885 95.9148C298.264 96.3984 294.577 86.8335 294.577 86.8335Z" fill="#E1964F"/>
<path d="M315.216 80.762C315.216 80.762 312.962 81.5675 307.943 81.299C302.925 81.0305 300.62 80.5469 300.62 80.5469C300.62 80.5469 301.081 83.5566 300.005 85.9746C298.93 88.3925 297.752 87.8555 297.445 89.7364C297.138 91.6173 297.24 92.6379 296.318 92.5845C295.397 92.531 295.474 88.313 294.91 87.3993C294.347 86.4855 292.4 87.802 292.221 88.2322C292.042 88.6623 289.507 80.7098 294.398 77.9412C294.398 77.9412 295.908 74.0191 302.413 73.7232C308.916 73.4273 314.114 75.8453 315.216 80.762Z" fill="#151A25"/>
<path d="M301.353 87.7656C301.353 87.7656 302.036 86.5117 303.88 86.5117C305.723 86.5117 305.895 87.6939 306.475 87.5857C307.055 87.4788 306.816 85.508 304.938 85.1143C303.061 84.7207 301.319 85.6514 301.353 87.7656Z" fill="#151A25"/>
<path d="M314.811 87.7289C314.811 87.7289 314.227 86.475 312.652 86.475C311.076 86.475 310.93 87.6572 310.434 87.549C309.938 87.4422 310.142 85.4713 311.747 85.0777C313.352 84.684 314.84 85.616 314.811 87.7289Z" fill="#151A25"/>
<path d="M305.075 89.8158C305.075 90.4245 304.8 90.9172 304.46 90.9172C304.121 90.9172 303.845 90.4245 303.845 89.8158C303.845 89.2071 304.12 88.7144 304.46 88.7144C304.8 88.7144 305.075 89.2071 305.075 89.8158Z" fill="#151A25"/>
<path d="M311.579 90.8638C311.24 90.8638 310.964 90.3706 310.964 89.7623C310.964 89.154 311.24 88.6609 311.579 88.6609C311.919 88.6609 312.194 89.154 312.194 89.7623C312.194 90.3706 311.919 90.8638 311.579 90.8638Z" fill="#151A25"/>
<path d="M315.454 92.5297C315.454 92.5297 311.289 90.8821 307.738 91.3475C304.188 91.8128 297.701 93.7472 297.701 93.7472C297.701 93.7472 297.462 100.231 300.773 102.99C304.085 105.748 305.86 106.143 308.523 105.856C311.187 105.57 313.542 104.172 314.327 102.238C315.112 100.304 315.898 93.8554 315.454 92.5297Z" fill="#B2BFE1"/>
<path d="M295.421 90.0034L298.136 93.6844L297.752 94.0077L295.549 90.8637L295.421 90.0034Z" fill="#EFF5E1"/>
<path d="M299.569 101.342C299.569 101.342 297.64 102.134 296.287 101.488C296.283 101.475 296.275 101.462 296.267 101.449C296.16 101.256 296.058 101.062 295.968 100.865C296.091 100.904 297.779 101.445 299.111 100.672L299.569 101.342Z" fill="#EFF5E1"/>
<path d="M299.237 94.5708C299.237 94.5708 305.075 92.4214 309.036 92.4214C313.167 92.4214 314.943 93.6753 314.943 93.6753L314.705 97.5089C314.705 97.5089 312.827 95.5745 307.774 96.2549C302.721 96.9353 300.195 98.1176 300.195 98.1176L299.237 94.5708Z" fill="#9FAFD3"/>
<path d="M300.466 98.8345C300.466 98.8345 311.289 95.8965 314.498 98.2975L314.224 100.088C314.224 100.088 312.586 98.4409 306.61 99.5866C300.635 100.734 301.012 100.734 301.012 100.734L300.466 98.8345Z" fill="#9FAFD3"/>
<path d="M293.706 108.076C293.706 108.076 284.252 110.123 281.129 113.81C278.005 117.498 277.42 121.799 277.42 121.799L326.036 121.185C326.036 121.185 321.155 114.425 316.078 112.786C311.002 111.147 293.706 108.076 293.706 108.076Z" fill="#2867A4"/>
<path d="M293.706 108.076L295.276 104.279C295.276 104.279 302.308 109.152 304.972 109.365L305.45 110.655L305.997 109.15C305.997 109.15 307.635 108.72 308.045 108.075C308.455 107.43 309.069 111.013 309.069 111.013C309.069 111.013 308.454 112.517 304.357 112.517C300.261 112.519 293.706 108.076 293.706 108.076Z" fill="#152D40"/>
<path d="M340.853 108.893C348.011 108.893 354.033 113.994 355.789 120.891L352.439 120.915C350.622 116.379 346.347 113.196 341.356 113.196C336.284 113.196 331.961 116.465 330.192 121.099L325.858 121.136C327.523 114.105 333.602 108.893 340.853 108.893Z" fill="#151A25"/>
<path d="M333.356 116.268C333.356 116.268 329.5 113.196 327.939 113.144C326.377 113.093 325.401 115.653 325.011 115.961C324.621 116.268 321.79 118.522 320.227 121.287L330.193 121.098C330.193 121.098 331.258 120.57 331.502 119.852C331.746 119.136 333.943 118.419 333.356 116.268Z" fill="#C17638"/>
<path d="M350.685 112.53C350.685 112.53 349.611 115.706 349.708 116.781C349.806 117.856 350.587 118.676 351.173 118.472C351.173 118.472 351.071 120.594 352.44 120.916L356.103 120.981C356.103 120.981 356.543 119.905 356.202 119.085C355.86 118.266 356.055 116.524 355.323 115.756C354.592 114.989 354.542 113.195 353.762 112.376C352.979 111.557 351.173 111.915 350.685 112.53Z" fill="#C17638"/>
<path d="M347.463 114.937C347.463 114.937 346.927 116.166 347.61 118.01C348.293 119.855 349.318 120.468 350.1 120.264C350.881 120.059 350.978 118.932 350.343 117.396C349.708 115.859 347.463 114.937 347.463 114.937Z" fill="#E1964F"/>
<path d="M335.184 121.063L346.055 120.964C345.117 118.739 343.043 117.19 340.642 117.19C338.206 117.19 336.109 118.776 335.184 121.063Z" fill="#151A25"/>
<path d="M345.73 113.272L342.728 119.418H339.433L342.435 112.658L345.73 113.272Z" fill="#151A25"/>
<path d="M244.326 182.644C244.326 182.644 200.689 125.794 198.932 131.019C197.175 136.243 196.589 174.04 200.689 184.181C204.79 194.322 242.861 191.248 245.204 190.327C247.547 189.405 246.962 186.332 244.326 182.644Z" fill="#83AC37"/>
<path d="M130.868 49.8318H157.03V62.9435H130.868V49.8318Z" fill="#FEF6D4"/>
<path d="M95.1376 40.4075H112.319V171.111H95.1376V40.4075Z" fill="#EF9A60"/>
</svg>
