<svg width="17" height="15" viewBox="0 0 17 15" fill="none" xmlns="http://www.w3.org/2000/svg">
<path d="M12 11.875C12 12.3391 12.1844 12.7842 12.5126 13.1124C12.8408 13.4406 13.2859 13.625 13.75 13.625C14.2141 13.625 14.6592 13.4406 14.9874 13.1124C15.3156 12.7842 15.5 12.3391 15.5 11.875C15.5 11.4109 15.3156 10.9658 14.9874 10.6376C14.6592 10.3094 14.2141 10.125 13.75 10.125C13.2859 10.125 12.8408 10.3094 12.5126 10.6376C12.1844 10.9658 12 11.4109 12 11.875ZM1.5 11.875C1.5 12.3391 1.68437 12.7842 2.01256 13.1124C2.34075 13.4406 2.78587 13.625 3.25 13.625C3.71413 13.625 4.15925 13.4406 4.48744 13.1124C4.81563 12.7842 5 12.3391 5 11.875C5 11.4109 4.81563 10.9658 4.48744 10.6376C4.15925 10.3094 3.71413 10.125 3.25 10.125C2.78587 10.125 2.34075 10.3094 2.01256 10.6376C1.68437 10.9658 1.5 11.4109 1.5 11.875Z" stroke="#E62129" stroke-width="1.5" stroke-linecap="round" stroke-linejoin="round"/>
<path d="M5 11.875H9.375C9.54695 10.7764 10.0633 9.76081 10.8495 8.97454C11.6358 8.18827 12.6514 7.67195 13.75 7.5V3.125C13.75 2.66087 13.5656 2.21575 13.2374 1.88756C12.9092 1.55937 12.4641 1.375 12 1.375H11.125" stroke="#E62129" stroke-width="1.5" stroke-linecap="round" stroke-linejoin="round"/>
</svg>
