<svg width="19" height="15" viewBox="0 0 19 15" fill="none" xmlns="http://www.w3.org/2000/svg">
<path d="M3.375 11.875C3.375 12.3391 3.55937 12.7842 3.88756 13.1124C4.21575 13.4406 4.66087 13.625 5.125 13.625C5.58913 13.625 6.03425 13.4406 6.36244 13.1124C6.69063 12.7842 6.875 12.3391 6.875 11.875C6.875 11.4109 6.69063 10.9658 6.36244 10.6376C6.03425 10.3094 5.58913 10.125 5.125 10.125C4.66087 10.125 4.21575 10.3094 3.88756 10.6376C3.55937 10.9658 3.375 11.4109 3.375 11.875ZM12.125 11.875C12.125 12.3391 12.3094 12.7842 12.6376 13.1124C12.9658 13.4406 13.4109 13.625 13.875 13.625C14.3391 13.625 14.7842 13.4406 15.1124 13.1124C15.4406 12.7842 15.625 12.3391 15.625 11.875C15.625 11.4109 15.4406 10.9658 15.1124 10.6376C14.7842 10.3094 14.3391 10.125 13.875 10.125C13.4109 10.125 12.9658 10.3094 12.6376 10.6376C12.3094 10.9658 12.125 11.4109 12.125 11.875Z" stroke="#E62129" stroke-width="1.5" stroke-linecap="round" stroke-linejoin="round"/>
<path d="M3.375 11.875H1.625V8.375M0.75 1.375H10.375V11.875M6.875 11.875H12.125M15.625 11.875H17.375V6.625M17.375 6.625H10.375M17.375 6.625L14.75 2.25H10.375M1.625 4.875H5.125" stroke="#E62129" stroke-width="1.5" stroke-linecap="round" stroke-linejoin="round"/>
</svg>
