<svg width="20" height="21" viewBox="0 0 20 21" fill="none" xmlns="http://www.w3.org/2000/svg">
<path d="M1 19.0002L2.65 15.2002C1.38766 13.4083 0.822667 11.2172 1.06104 9.03832C1.29942 6.85939 2.32479 4.84235 3.94471 3.36573C5.56463 1.88911 7.66775 1.05443 9.85938 1.01831C12.051 0.982198 14.1805 1.74714 15.8482 3.16959C17.5159 4.59203 18.6071 6.57419 18.9172 8.74408C19.2272 10.914 18.7347 13.1224 17.5321 14.955C16.3295 16.7875 14.4994 18.1182 12.3854 18.6973C10.2713 19.2764 8.01863 19.0641 6.05 18.1002L1 19.0002Z" stroke="white" stroke-width="2" stroke-linecap="round" stroke-linejoin="round"/>
<path d="M7 8C7 8.13261 7.05268 8.25979 7.14645 8.35355C7.24021 8.44732 7.36739 8.5 7.5 8.5C7.63261 8.5 7.75979 8.44732 7.85355 8.35355C7.94732 8.25979 8 8.13261 8 8V7C8 6.86739 7.94732 6.74021 7.85355 6.64645C7.75979 6.55268 7.63261 6.5 7.5 6.5C7.36739 6.5 7.24021 6.55268 7.14645 6.64645C7.05268 6.74021 7 6.86739 7 7V8ZM7 8C7 9.32608 7.52678 10.5979 8.46447 11.5355C9.40215 12.4732 10.6739 13 12 13M12 13H13C13.1326 13 13.2598 12.9473 13.3536 12.8536C13.4473 12.7598 13.5 12.6326 13.5 12.5C13.5 12.3674 13.4473 12.2402 13.3536 12.1464C13.2598 12.0527 13.1326 12 13 12H12C11.8674 12 11.7402 12.0527 11.6464 12.1464C11.5527 12.2402 11.5 12.3674 11.5 12.5C11.5 12.6326 11.5527 12.7598 11.6464 12.8536C11.7402 12.9473 11.8674 13 12 13Z" stroke="white" stroke-width="2" stroke-linecap="round" stroke-linejoin="round"/>
</svg>
