<svg width="251" height="316" viewBox="0 0 251 316" fill="none" xmlns="http://www.w3.org/2000/svg">
<path d="M5.65095 122.105C5.65095 122.105 14.71 31.0015 118.154 63.9241C139.867 70.8348 183.089 0.0975056 228.948 31.4025C274.807 62.7075 241.304 157.233 199.798 185.036C158.291 212.837 130.254 154.168 94.3135 170.45C58.3712 186.732 34.075 209.379 16.4287 190.851C-1.21757 172.324 5.65095 122.105 5.65095 122.105Z" fill="#EAF9CC"/>
<path d="M227.249 264.501C228.387 270.281 197.747 291.686 135.858 303.874C73.9701 316.065 20.4931 321.432 3.13327 308.643C-1.70005 305.082 11.5048 289.586 73.3927 277.395C135.28 265.206 226.111 258.721 227.249 264.501Z" fill="#E6E6E6"/>
<path d="M191.815 274.954C210.422 274.954 225.506 259.468 225.506 240.364C225.506 221.261 210.422 205.774 191.815 205.774C173.208 205.774 158.123 221.261 158.123 240.364C158.123 259.468 173.208 274.954 191.815 274.954Z" fill="#152D40"/>
<path d="M199.223 261.927C208.484 261.927 215.99 252.675 215.99 241.263C215.99 229.85 208.484 220.598 199.223 220.598C189.963 220.598 182.456 229.85 182.456 241.263C182.456 252.675 189.963 261.927 199.223 261.927Z" fill="#2867A4"/>
<path d="M66.8784 250.946C66.8784 250.946 85.5966 258.203 121.506 253.62C157.415 249.036 157.415 242.924 157.415 242.924C157.415 242.924 144.808 227.262 123.034 227.643C101.26 228.025 66.8784 250.946 66.8784 250.946Z" fill="#90C42F"/>
<path d="M144.808 242.541C144.808 242.541 152.83 186.004 164.291 173.399C175.752 160.792 117.687 167.287 117.687 167.287L97.4402 242.16L144.808 242.541Z" fill="#83AC37"/>
<path d="M154.359 174.544C154.359 174.544 133.349 226.879 143.281 245.215C153.213 263.552 224.267 240.249 230.379 230.699C236.491 221.148 226.177 195.173 215.098 185.241C204.02 175.309 202.11 168.051 202.11 168.051L154.359 174.544Z" fill="#90C42F"/>
<path d="M68.7886 249.8C68.7886 249.8 124.179 253.62 140.605 247.508C157.032 241.397 135.258 225.351 103.933 228.409C72.6088 231.465 55.8008 245.981 55.8008 245.981L68.7886 249.8Z" fill="#83AC37"/>
<path d="M72.9917 241.014C72.9917 241.014 81.395 238.339 84.8338 235.093C88.2726 231.846 93.62 231.465 99.5403 232.419C105.462 233.373 106.416 235.475 106.416 235.475C106.416 235.475 107.754 242.542 106.225 244.834C104.696 247.125 87.1253 247.317 80.0578 246.553C72.9917 245.788 68.4072 244.642 72.9917 241.014Z" fill="#29496B"/>
<path d="M123.034 176.836C123.034 176.836 146.337 179.127 178.425 176.454C210.513 173.78 210.895 171.105 208.603 164.612C206.312 158.118 194.087 161.938 186.448 160.028C178.807 158.118 131.821 164.229 131.821 164.229L123.034 176.836Z" fill="#29496B"/>
<path d="M60.6324 129.82C60.6324 129.82 38.593 136.819 33.6752 158.127C29.8324 174.781 25.0308 206.017 29.1676 228.609C33.3044 251.202 61.95 258.114 61.95 258.114L67.9502 132.047L60.6324 129.82Z" fill="#83AC37"/>
<path d="M185.684 95.4688H144.427V164.994H185.684V95.4688Z" fill="#A9402C"/>
<path d="M218.154 160.028L185.301 164.994V95.4688H218.154V160.028Z" fill="#D14F2D"/>
<path d="M114.382 135.234L112.825 139.461C112.825 139.461 82.3462 143.466 72.1128 158.373C61.8793 173.278 55.8716 225.115 60.0988 228.229C64.3261 231.344 73.0022 231.344 76.7848 227.562C80.5673 223.779 88.354 181.731 92.8028 175.725C97.2517 169.719 127.064 161.486 132.626 150.14C138.187 138.794 135.517 136.791 135.517 136.791L114.382 135.234Z" fill="#0F2330"/>
<path d="M169.334 133.972C169.334 133.972 173.116 142.427 162.437 160.818C151.758 179.209 128.398 177.578 121.872 183.213C115.346 188.848 114.753 230.378 109.71 234.234C104.668 238.091 94.2848 235.718 87.7599 234.234C81.2336 232.751 99.9216 160.966 105.261 152.956C110.601 144.946 128.398 142.278 128.398 142.278L129.585 134.565L169.334 133.972Z" fill="#152D40"/>
<path d="M89.5902 130.139C89.5902 130.139 104.545 137.458 110.91 154.64C117.274 171.823 93.531 250.656 80.8024 256.066C68.0739 261.475 45.3607 266.013 40.5861 221.782C35.8131 177.551 60.634 135.548 69.2242 131.411" fill="#90C42F"/>
<path d="M64.8266 124.865L50.5634 123.849L37.087 122.888C34.6357 122.713 32.7904 120.585 32.9653 118.133C33.1402 115.682 35.2689 113.837 37.7202 114.012L65.4598 115.988C67.9111 116.163 69.7564 118.292 69.5815 120.743C69.4051 123.193 67.2764 125.04 64.8266 124.865Z" fill="#29496B"/>
<path d="M61.6545 115.952C61.6545 115.952 59.2077 112.985 57.3534 112.022C55.499 111.057 53.8678 111.725 53.8678 111.725C53.8678 111.725 51.9396 110.538 50.4561 110.538C48.9727 110.538 48.2309 111.428 48.2309 111.428C48.2309 111.428 46.5998 110.463 45.4872 110.612C44.3746 110.76 43.856 111.502 43.856 111.502C43.856 111.502 42.5217 110.834 40.9644 111.576C39.4071 112.317 36.8849 116.248 37.6266 119.956C38.3683 123.663 41.6308 124.628 42.4464 124.331C43.262 124.034 43.4851 123.442 43.4851 123.442C43.4851 123.442 45.1163 125.518 46.6736 124.851C48.2309 124.183 48.2309 124.183 48.2309 124.183C48.2309 124.183 50.0853 125.518 51.2718 124.999C52.4582 124.48 52.4582 124.48 52.4582 124.48C52.4582 124.48 53.4216 125.593 54.9789 125.37C56.5362 125.147 56.8332 124.628 57.278 124.11C57.7227 123.591 54.9608 121.666 55.202 120.624C56.5754 114.692 61.6545 115.952 61.6545 115.952Z" fill="#E1964F"/>
<path d="M121.278 58.183C121.278 58.183 110.303 57.2196 108.522 73.4593C106.742 89.7005 103.48 89.1804 96.6577 93.7785C91.8681 97.0063 70.9986 98.0058 66.5497 104.68C62.0994 111.354 69.4413 121.143 85.4594 118.696C101.477 116.249 112.453 113.653 117.569 98.5244C122.688 83.3973 121.278 58.183 121.278 58.183Z" fill="#152D40"/>
<path d="M115.493 135.9L155.761 137.681C161.452 137.681 173.064 137.437 172.892 131.749C172.326 113.076 172.141 59.276 167.446 57.3207C161.181 54.7095 150.218 49.4888 150.218 49.4888L131.944 51.7486C131.944 51.7486 119.936 54.7095 117.153 59.5805C116.439 60.8288 115.748 65.4646 115.117 71.6774C114.663 76.1052 114.245 81.3365 113.864 86.7035C113.209 95.9796 112.599 107.187 112.189 115.222C111.896 120.987 109.724 135.9 115.493 135.9Z" fill="#90C42F"/>
<path d="M120.975 13.2522C120.975 13.2522 115.288 27.728 120.2 35.483C125.112 43.238 128.989 36.6454 128.989 36.6454L123.948 14.4145L120.975 13.2522Z" fill="#152D40"/>
<path d="M148.116 38.844L148.375 47.1161C148.375 47.1161 141.137 53.062 136.398 52.8027C131.659 52.5449 132.348 51.2514 132.348 51.2514L132.262 45.4789C132.262 45.4789 143.635 38.9299 148.116 38.844Z" fill="#C17638"/>
<path d="M123.238 35.9371C123.755 44.7263 128.599 46.8566 132.736 48.1486C136.856 49.436 144.445 45.7183 147.186 41.087C147.192 41.072 147.201 41.0554 147.211 41.0403C147.346 40.8081 147.475 40.5745 147.588 40.3378H147.593C149.872 35.8391 149.408 30.742 149.408 30.742C149.408 30.742 149.538 27.8158 149.387 24.3679C149.238 20.9201 148.802 16.9597 147.686 14.8913C145.443 10.7559 138.68 9.76245 135.707 9.76245C132.734 9.76245 127.048 11.9605 124.721 15.0616C122.397 18.1627 123.084 33.3531 123.238 35.9371Z" fill="#E1964F"/>
<path d="M149.345 23.4622C149.345 23.4622 151.671 23.5918 152.9 25.9828C154.127 28.3739 153.222 33.8027 148.957 34.3831C144.691 34.965 149.345 23.4622 149.345 23.4622Z" fill="#E1964F"/>
<path d="M123.301 16.1605C123.301 16.1605 126.145 17.1299 132.478 16.8073C138.811 16.4846 141.719 15.9027 141.719 15.9027C141.719 15.9027 141.137 19.5209 142.494 22.429C143.851 25.3372 145.338 24.6904 145.725 26.9533C146.113 29.2147 145.983 30.4434 147.147 30.3785C148.311 30.3137 148.213 25.2407 148.924 24.1417C149.636 23.0426 152.09 24.6256 152.316 25.1427C152.542 25.6598 155.741 16.0957 149.569 12.7669C149.569 12.7669 147.662 8.04971 139.455 7.69392C131.249 7.33813 124.69 10.2463 123.301 16.1605Z" fill="#151A25"/>
<path d="M140.792 24.5819C140.792 24.5819 139.93 23.0744 137.604 23.0744C135.278 23.0744 135.062 24.496 134.329 24.3663C133.597 24.2367 133.898 21.8668 136.268 21.3934C138.638 20.92 140.836 22.0401 140.792 24.5819Z" fill="#151A25"/>
<path d="M123.811 24.5397C123.811 24.5397 124.548 23.0321 126.535 23.0321C128.522 23.0321 128.707 24.4538 129.333 24.3241C129.959 24.1945 129.701 21.826 127.676 21.3512C125.652 20.8778 123.775 21.9979 123.811 24.5397Z" fill="#151A25"/>
<path d="M136.096 27.0486C136.096 27.7797 136.443 28.3737 136.871 28.3737C137.299 28.3737 137.646 27.7812 137.646 27.0486C137.646 26.3174 137.299 25.7234 136.871 25.7234C136.443 25.7249 136.096 26.3174 136.096 27.0486Z" fill="#151A25"/>
<path d="M127.114 26.9853C127.114 27.7165 127.461 28.3105 127.889 28.3105C128.317 28.3105 128.664 27.718 128.664 26.9853C128.664 26.2541 128.317 25.6602 127.889 25.6602C127.461 25.6602 127.114 26.2526 127.114 26.9853Z" fill="#151A25"/>
<path d="M123 30.3124C123 30.3124 128.255 28.3299 132.736 28.8907C137.216 29.4515 145.402 31.7777 145.402 31.7777C145.402 31.7777 145.704 39.575 141.525 42.8932C137.346 46.2098 135.106 46.6847 131.745 46.3395C128.385 45.9942 125.412 44.3148 124.421 41.9886C123.429 39.6624 122.439 31.9059 123 30.3124Z" fill="#90C42F"/>
<path d="M148.277 27.2759L144.854 31.7021L145.337 32.0896L148.116 28.3086L148.277 27.2759Z" fill="#EFF5E1"/>
<path d="M143.044 40.9105C143.044 40.9105 145.479 41.8618 147.186 41.0869C147.192 41.0718 147.201 41.0553 147.211 41.0402C147.346 40.808 147.475 40.5743 147.588 40.3376C147.433 40.3844 145.303 41.0356 143.623 40.1055L143.044 40.9105Z" fill="#EFF5E1"/>
<path d="M143.464 32.7684C143.464 32.7684 136.096 30.1829 131.099 30.1829C125.885 30.1829 123.645 31.6904 123.645 31.6904L123.947 36.3006C123.947 36.3006 126.316 33.9744 132.692 34.7931C139.069 35.6117 142.256 37.0333 142.256 37.0333L143.464 32.7684Z" fill="#83AC37"/>
<path d="M141.912 37.8956C141.912 37.8956 128.255 34.3633 124.206 37.2489L124.551 39.4032C124.551 39.4032 126.619 37.4207 134.159 38.8002C141.698 40.1796 141.225 40.1796 141.225 40.1796L141.912 37.8956Z" fill="#83AC37"/>
<path d="M119.335 16.1833C119.392 24.2489 138.541 20.5161 142.372 19.6929C142.796 19.5995 143.034 19.5437 143.034 19.5437C143.034 19.5437 143.981 34.4492 146.218 37.9799C147.365 39.789 150.881 40.4931 154.195 39.0141C154.199 39.0096 154.205 39.0096 154.21 39.0096C157.364 37.5925 160.326 34.1959 160.869 27.9002C161.986 14.9757 157.162 4.03517 144.842 1.62153C132.519 -0.795125 119.253 3.34168 119.335 16.1833Z" fill="#2867A4"/>
<path d="M142.372 19.693C142.796 19.5995 143.034 19.5438 143.034 19.5438C143.034 19.5438 143.981 34.4492 146.218 37.98C147.365 39.7891 150.881 40.4931 154.195 39.0142C153.171 39.1906 150.368 39.4378 148.978 37.2051C147.252 34.4492 144.754 18.5518 144.754 18.5518L142.428 17.6472L142.372 19.693Z" fill="#152D40"/>
<path d="M144.799 18.8004C144.799 18.8004 144.756 17.5808 143.658 17.1285C142.559 16.6762 131.831 13.9626 127.308 14.2204C122.784 14.4781 117.485 16.4169 116.58 18.1627C115.676 19.907 127.049 21.5879 134.352 21.2653C141.654 20.9427 144.799 18.8004 144.799 18.8004Z" fill="#1C3B51"/>
<path d="M152.64 24.7555C152.64 28.2531 154.217 31.0888 156.162 31.0888C158.107 31.0888 159.684 28.2531 159.684 24.7555C159.684 21.2579 158.107 18.4221 156.162 18.4221C154.217 18.4221 152.64 21.2579 152.64 24.7555Z" fill="#1C3B51"/>
<path d="M145.098 16.0011C145.098 16.0011 132.455 9.48232 120.61 14.9006C120.61 14.9006 122.104 10.4984 124.89 8.38178C127.678 6.26513 132.098 4.51181 138.528 7.11239C144.6 9.56825 145.098 16.0011 145.098 16.0011Z" fill="#275C89"/>
<path d="M114.087 86.779C118.791 88.7841 128.021 91.8958 140.129 91.8958C158.01 91.8958 165.973 84.7167 165.973 84.7167L166.07 67.9719C166.07 67.9719 149.396 79.2336 133.734 77.9295C122.968 77.031 117.627 73.7264 115.34 71.7529C114.886 76.1792 114.468 81.412 114.087 86.779Z" fill="#1C3B51"/>
<path d="M42.5867 113.208C42.5867 113.208 40.9042 118.069 42.5475 120.577C44.1907 123.086 42.3244 122.38 41.3716 120.974C40.4158 119.566 40.4263 116.695 42.5867 113.208Z" fill="#C17E3E"/>
<path d="M47.0671 113.477C47.0671 113.477 45.3847 118.337 47.0279 120.846C48.6712 123.354 46.8048 122.649 45.852 121.242C44.8962 119.834 44.9068 116.962 47.0671 113.477Z" fill="#C17E3E"/>
<path d="M51.9262 114.489C51.9262 114.489 50.2437 119.349 51.887 121.858C53.5302 124.366 51.6638 123.661 50.7111 122.254C49.7568 120.846 49.7673 117.974 51.9262 114.489Z" fill="#83AC37"/>
<path d="M150.441 49.5614L148.439 44.9497C148.439 44.9497 139.476 50.867 136.083 51.1278L135.474 52.6942L134.777 50.867C134.777 50.867 132.689 50.3453 132.166 49.5614C131.644 48.7775 130.86 53.1299 130.86 53.1299C130.86 53.1299 131.644 54.9571 136.865 54.9571C142.087 54.9571 150.441 49.5614 150.441 49.5614Z" fill="#152D40"/>
<path d="M135.822 54.6084C135.822 54.6084 129.295 113.676 129.817 125.815L127.988 125.816C127.988 125.816 130.339 68.0093 134.777 54.5647L135.822 54.6084Z" fill="#B2BFE1"/>
<path d="M114.752 118.401C114.752 118.401 114.604 116.028 119.35 114.247C124.096 112.467 146.195 114.692 151.831 112.022C157.466 109.352 158.06 110.613 159.544 110.317C161.027 110.022 159.988 92.7416 160.878 84.2871C161.767 75.8325 164.363 59.8145 166.884 57.2938C166.884 57.2938 169.276 54.2002 176.228 63.3754C181.789 70.7173 178.898 124.335 167.106 129.451C151.208 136.35 125.725 137.238 120.164 135.681C114.602 134.123 113.935 128.783 113.935 128.783L114.752 118.401Z" fill="#152D40"/>
<path d="M127.619 125.555C127.619 130.163 123.983 133.898 119.499 133.898C115.014 133.898 111.379 130.163 111.379 125.555C111.379 120.948 115.014 117.212 119.499 117.212C123.984 117.214 127.619 120.948 127.619 125.555Z" fill="#102533"/>
<path d="M50.2347 108.908C50.2347 108.908 53.3494 101.715 60.1712 100.676C66.9945 99.6374 76.1154 102.307 81.603 108.981C87.0906 115.655 102.961 117.731 106.817 120.551C110.674 123.368 109.338 130.784 104.444 132.415C99.5493 134.047 84.1252 130.487 77.7466 133.75C71.3695 137.012 59.8742 135.455 54.5343 133.231C49.196 131.007 44.1531 118.993 50.2347 108.908Z" fill="#90C42F"/>
<path d="M123.414 131.949L110.91 130.357L99.0955 128.854C96.9472 128.581 95.4472 126.448 95.7472 124.092C96.0472 121.735 98.0327 120.047 100.181 120.32L124.5 123.415C126.648 123.688 128.148 125.821 127.848 128.177C127.548 130.535 125.564 132.224 123.414 131.949Z" fill="#29496B"/>
<path d="M124.69 123.368C124.69 123.368 122.243 120.401 120.388 119.438C118.534 118.475 116.903 119.141 116.903 119.141C116.903 119.141 114.975 117.955 113.491 117.955C112.008 117.955 111.266 118.844 111.266 118.844C111.266 118.844 109.635 117.879 108.522 118.028C107.41 118.176 106.891 118.918 106.891 118.918C106.891 118.918 105.557 118.25 104 118.992C102.442 119.734 99.92 123.664 100.662 127.372C101.403 131.081 104.666 132.044 105.481 131.747C106.297 131.45 106.52 130.858 106.52 130.858C106.52 130.858 108.151 132.934 109.709 132.268C111.266 131.6 111.266 131.6 111.266 131.6C111.266 131.6 113.12 132.934 114.307 132.415C115.493 131.897 115.493 131.897 115.493 131.897C115.493 131.897 116.457 133.009 118.014 132.786C119.571 132.563 119.868 132.044 120.313 131.526C120.758 131.007 117.996 129.082 118.237 128.04C119.611 122.108 124.69 123.368 124.69 123.368Z" fill="#E1964F"/>
<path d="M73.363 120.007C74.8877 113.55 70.8891 107.079 64.4318 105.554C57.9745 104.03 51.5038 108.028 49.9791 114.486C48.4543 120.943 52.4529 127.414 58.9102 128.938C65.3675 130.463 71.8382 126.464 73.363 120.007Z" fill="#FEF6D4"/>
<path d="M43.6721 310.458C63.6091 310.458 79.7712 293.864 79.7712 273.395C79.7712 252.926 63.6091 236.333 43.6721 236.333C23.7351 236.333 7.573 252.926 7.573 273.395C7.573 293.864 23.7351 310.458 43.6721 310.458Z" fill="#152D40"/>
<path d="M51.6111 296.499C61.5334 296.499 69.577 286.586 69.577 274.358C69.577 262.131 61.5334 252.218 51.6111 252.218C41.6888 252.218 33.6453 262.131 33.6453 274.358C33.6453 286.586 41.6888 296.499 51.6111 296.499Z" fill="#2867A4"/>
<path d="M58.6741 239.943C58.6741 239.943 43.2712 281.979 47.4427 286.793C51.6141 291.607 56.749 291.607 59.9571 280.696C63.1668 269.786 68.6212 245.72 68.6212 245.72L58.6741 239.943Z" fill="#29496B"/>
<path d="M4.03929 259.349C4.03929 259.349 8.43237 254.956 15.4999 255.529C22.5675 256.102 22.376 260.876 28.1063 260.876C33.8367 260.876 35.1739 251.326 51.7905 249.034C68.4071 246.743 71.8459 256.102 79.4864 257.821C87.1268 259.539 81.0135 246.551 63.6326 236.619C46.2516 226.687 27.5335 230.889 14.3542 239.867C1.1749 248.844 -2.45538 260.687 4.03929 259.349Z" fill="#83AC37"/>
<path d="M67.4527 146.659C67.4527 146.659 80.8235 143.794 84.4523 145.13C88.081 146.466 77.9576 149.715 85.4066 150.477C92.8556 151.242 105.271 153.533 106.226 155.443C107.181 157.354 81.9693 154.106 79.2948 153.533C76.6204 152.96 79.2948 147.994 79.2948 147.994C79.2948 147.994 68.2171 147.994 67.4527 147.994C66.6884 147.996 67.4527 146.659 67.4527 146.659Z" fill="#FEF6D4"/>
<path d="M84.5473 240.917C84.5473 240.917 104.889 191.352 103.457 176.454C102.025 161.556 100.592 174.736 94.0028 199.374C87.4117 224.014 78.2441 245.502 84.5473 240.917Z" fill="#83AC37"/>
<path d="M105.904 120.945C105.904 120.945 104.221 125.806 105.864 128.314C107.508 130.823 105.641 130.117 104.689 128.711C103.734 127.303 103.743 124.431 105.904 120.945Z" fill="#C17E3E"/>
<path d="M110.384 121.212C110.384 121.212 108.702 126.073 110.345 128.581C111.988 131.09 110.122 130.384 109.168 128.978C108.215 127.57 108.225 124.698 110.384 121.212Z" fill="#C17E3E"/>
<path d="M115.245 122.224C115.245 122.224 113.562 127.084 115.205 129.593C116.849 132.102 114.982 131.396 114.03 129.989C113.074 128.581 113.084 125.709 115.245 122.224Z" fill="#C17E3E"/>
<path d="M213.186 194.408C213.186 194.408 181.289 201.857 179.76 204.532C178.233 207.206 219.108 198.611 213.186 194.408Z" fill="#83AC37"/>
<path d="M215.288 203.003C215.288 203.003 183.391 210.452 181.862 213.126C180.335 215.801 221.21 207.206 215.288 203.003Z" fill="#83AC37"/>
<path d="M216.434 211.216C216.434 211.216 184.536 218.665 183.008 221.34C181.48 224.014 222.356 215.419 216.434 211.216Z" fill="#83AC37"/>
<path d="M206.502 161.747L200.652 162.63L200.582 95.6602H206.502V161.747Z" fill="#EA6F57"/>
</svg>
